<svg width="36" height="36" viewBox="0 0 36 36" fill="none" xmlns="http://www.w3.org/2000/svg">
<path d="M35.1339 16.6084C34.695 9.3492 29.9707 3.26966 23.4933 0.921242C23.3617 0.871859 23.2464 1.03373 23.337 1.14346C26.0722 4.45758 27.8939 10.0735 28.0722 16.6249C28.0722 16.7017 28.1353 16.7621 28.2121 16.7621H34.9885C35.0708 16.7621 35.1367 16.6935 35.1312 16.6112L35.1339 16.6084Z" fill="#18306C"/>
<path d="M11.3595 1.02936C5.03027 3.4491 0.437695 9.45731 0.004226 16.6096C-0.00126095 16.6919 0.0645826 16.7604 0.146887 16.7604H6.72849C6.8053 16.7604 6.86566 16.7001 6.8684 16.6233C7.04399 10.1404 8.83273 4.57667 11.5213 1.24883C11.6119 1.1391 11.4939 0.97723 11.3622 1.02936H11.3595Z" fill="#18306C"/>
<path d="M16.4351 0.00126006C12.3583 1.04652 9.04695 8.13841 8.78906 16.613C8.78906 16.6926 8.85216 16.7612 8.93172 16.7612H16.4708C16.5476 16.7612 16.6107 16.6981 16.6107 16.6212V0.143921C16.6107 0.0533862 16.5257 -0.0179447 16.4351 0.00400307V0.00126006Z" fill="#18306C"/>
<path d="M16.6081 35.2274V18.8186C16.6081 18.7418 16.545 18.6787 16.4681 18.6787H8.93181C8.85224 18.6787 8.7864 18.7446 8.78915 18.8269C9.06349 27.2685 12.3666 34.3275 16.4325 35.37C16.5203 35.392 16.6081 35.3234 16.6081 35.2301V35.2274Z" fill="#18306C"/>
<path d="M0.000319748 18.8296C0.436532 26.012 5.06478 32.0394 11.4351 34.44C11.5696 34.4894 11.6848 34.3302 11.5942 34.2205C8.87272 30.9146 7.0538 25.3344 6.8645 18.8159C6.8645 18.7391 6.8014 18.6787 6.72458 18.6787H0.142981C0.0606763 18.6787 -0.0051672 18.7473 0.000319748 18.8296Z" fill="#18306C"/>
<path d="M18.7096 35.3052C22.6821 34.0844 25.881 27.1269 26.1526 18.8252C26.1526 18.7456 26.0895 18.677 26.01 18.677H18.6712C18.5943 18.677 18.5312 18.7401 18.5312 18.8169V35.1653C18.5312 35.2586 18.6218 35.3299 18.7123 35.3025L18.7096 35.3052Z" fill="#18306C"/>
<path d="M18.5262 0.201522V16.6185C18.5262 16.6953 18.5893 16.7584 18.6661 16.7584H26.0076C26.0872 16.7584 26.153 16.6926 26.1503 16.6103C25.8952 8.27832 22.6908 1.28519 18.7045 0.0616042C18.614 0.0341694 18.5234 0.1055 18.5234 0.198778L18.5262 0.201522Z" fill="#18306C"/>
<path d="M23.4055 34.5508C29.9295 32.227 34.6949 26.1228 35.1366 18.8279C35.1421 18.7456 35.0762 18.677 34.9939 18.677H28.2148C28.138 18.677 28.0776 18.7374 28.0749 18.8142C27.8828 25.4067 26.0255 31.0391 23.2519 34.3285C23.1613 34.4383 23.2711 34.6001 23.4055 34.5508Z" fill="#18306C"/>
</svg>
