<svg width="17" height="18" viewBox="0 0 17 18" fill="none" xmlns="http://www.w3.org/2000/svg">
<path d="M15.875 10.1321C16.5002 10.1321 17.0071 9.62523 17.0071 9C17.0071 8.37477 16.5002 7.86792 15.875 7.86792L15.875 10.1321ZM1.1992 8.1995C0.757095 8.6416 0.757095 9.35839 1.1992 9.8005L8.40368 17.005C8.84579 17.4471 9.56258 17.4471 10.0047 17.005C10.4468 16.5629 10.4468 15.8461 10.0047 15.404L3.60069 9L10.0047 2.59601C10.4468 2.15391 10.4468 1.43712 10.0047 0.995017C9.56258 0.552913 8.84579 0.552913 8.40368 0.995016L1.1992 8.1995ZM15.875 7.86792L1.9997 7.86792L1.9997 10.1321L15.875 10.1321L15.875 7.86792Z" fill="#F2683C"/>
</svg>
