<svg width="28" height="28" fill="none" xmlns="http://www.w3.org/2000/svg"><path d="M12.833 1.055c-2.412.274-4.303.953-6.136 2.202-.692.472-1.11.816-1.766 1.455-2.05 1.995-3.346 4.524-3.794 7.398-.125.805-.125 2.975 0 3.78.448 2.874 1.744 5.403 3.794 7.398.656.639 1.074.983 1.766 1.455a13.112 13.112 0 0 0 5.413 2.119c.805.125 2.975.125 3.78 0 2.868-.444 5.404-1.744 7.398-3.793a12.568 12.568 0 0 0 2.066-2.748c.723-1.279 1.268-2.879 1.508-4.431.125-.805.125-2.975 0-3.78-.444-2.87-1.743-5.403-3.793-7.398-.656-.639-1.074-.983-1.766-1.455a13.128 13.128 0 0 0-5.39-2.116c-.466-.073-2.659-.134-3.08-.086m-.316 11.252L14 13.788l1.483-1.481 1.484-1.48h.201c.167 0 .229.027.36.158.125.125.159.197.159.337 0 .171-.056.234-1.47 1.651-.809.81-1.47 1.493-1.47 1.518 0 .026.631.676 1.403 1.446.771.77 1.433 1.456 1.47 1.526.086.162.084.287-.006.463-.087.167-.353.294-.529.251-.076-.018-.678-.584-1.603-1.508L14 15.191l-1.482 1.478c-.925.924-1.527 1.49-1.603 1.508-.176.043-.442-.084-.529-.251-.09-.176-.092-.301-.006-.463.037-.07.699-.756 1.47-1.526.772-.77 1.403-1.42 1.403-1.446 0-.025-.661-.708-1.47-1.518-1.414-1.417-1.47-1.48-1.47-1.651 0-.14.034-.212.159-.337.131-.131.193-.158.36-.158h.201l1.484 1.48" fill="#000" fill-rule="evenodd"/></svg>