<svg aria-hidden="true" style="position: absolute; width: 0; height: 0; overflow: hidden;" version="1.1" xmlns="http://www.w3.org/2000/svg" xmlns:xlink="http://www.w3.org/1999/xlink">
<defs>
<symbol id="icon-logo" viewBox="0 0 178 32">
<path d="M12.226 0.449c-4.273 0.928-8.548 4.348-10.547 8.44-6.044 12.371 5.987 26.055 19.028 21.644 11.127-3.764 14.294-18.108 5.76-26.092-3.995-3.737-8.981-5.135-14.242-3.992zM122.506 0.552c-2.727 1.663-4.944 6.6-5.373 11.966l-0.183 2.297h6.902v-7.408c0-4.074-0.1-7.406-0.222-7.406s-0.628 0.249-1.124 0.551zM125.629 7.4v7.415h6.606l-0.183-2.297c-0.437-5.472-2.839-10.68-5.578-12.097l-0.845-0.436v7.415zM71.844 0.656c-0.080 0.21-0.111 7.115-0.068 15.344l0.076 14.963h5.926l0.16-12.889h16.284v13.058l6.074-0.169v-30.518l-6.074-0.169v12.465h-16.284l-0.080-6.148-0.080-6.148-2.894-0.084c-2.148-0.063-2.932 0.012-3.040 0.296zM149.333 15.704v15.429l5.482-0.171 0.148-10.787 0.148-10.788 16.777 21.723h5.89v-30.815h-5.622l-0.078 11.008-0.077 11.007-16.889-21.867-5.778-0.17v15.429zM36.444 3.556v2.667h10.66l0.077 12.371 0.077 12.37 5.771 0.17 0.077-12.381 0.077-12.38 10.815-0.162v-5.32h-27.556v2.667zM117.049 2c-3.819 2.233-6.684 6.154-7.577 10.368-0.234 1.101-0.427 2.102-0.43 2.225s1.396 0.222 3.107 0.222h3.111v-1.301c0-1.748 0.793-5.829 1.5-7.719 0.316-0.844 1.030-2.292 1.589-3.22s0.922-1.686 0.807-1.686c-0.114 0-1.062 0.5-2.108 1.111zM130.288 1.669c1.84 2.608 3.189 6.743 3.529 10.818l0.195 2.328h6.344l-0.239-1.516c-0.577-3.655-2.341-6.821-4.878-9.162l-0.011-0.010c-1.496-1.388-3.567-2.716-4.828-3.093l-0.711-0.213 0.599 0.849zM19.028 6.715c1.526 0.478 3.977 2.491 4.948 4.063 0.332 0.536 0.819 1.818 1.083 2.849 0.818 3.193-0.113 6.394-2.576 8.857-1.57 1.571-2.868 2.247-5.184 2.703-1.513 0.297-2.094 0.277-3.673-0.127-2.345-0.601-3.468-1.29-5.148-3.158-3.196-3.556-3.132-8.96 0.149-12.55 2.802-3.065 6.248-3.939 10.401-2.636zM109.193 17.704c0.65 3.956 2.522 7.582 5.075 9.829 1.419 1.249 3.364 2.476 4.461 2.815 0.606 0.188 0.58 0.077-0.37-1.5-0.564-0.936-1.284-2.392-1.599-3.236-0.708-1.89-1.5-5.972-1.5-7.719v-1.3h-6.25l0.183 1.111zM117.132 18.889c0.333 4.172 1.836 8.359 3.8 10.596 0.807 0.92 2.244 1.922 2.756 1.922 0.090 0 0.163-3.333 0.163-7.407v-7.407h-6.902l0.183 2.296zM125.629 24.008v7.414l0.845-0.436c2.756-1.426 5.14-6.596 5.579-12.097l0.182-2.296h-6.606v7.415zM133.926 18.086c0 3.292-1.556 8.569-3.3 11.188-0.467 0.701-0.848 1.337-0.848 1.412 0 0.301 3.201-1.488 4.672-2.612 2.838-2.168 5.699-7.426 5.699-10.476v-1.005h-6.222v1.493z"></path>
</symbol>
<symbol id="icon-arrow-link" viewBox="0 0 32 32">
<path d="M2.479 1.035c-0.441 0.139-0.86 0.388-1.177 0.698-0.51 0.502-0.827 1.2-0.827 1.971 0 0.31 0.051 0.608 0.145 0.886l-0.006-0.019c0.319 0.949 1 1.579 1.976 1.83 0.403 0.103 0.622 0.106 9.697 0.106h9.284l-9.87 9.88c-9.661 9.67-9.874 9.888-10.038 10.253-0.167 0.349-0.264 0.759-0.264 1.191 0 0.373 0.072 0.729 0.204 1.055l-0.007-0.019c0.245 0.643 0.893 1.291 1.536 1.536 0.307 0.125 0.663 0.197 1.036 0.197 0.432 0 0.842-0.097 1.208-0.271l-0.017 0.007c0.366-0.164 0.584-0.377 10.254-10.038l9.88-9.87v9.284c0 9.075 0.003 9.294 0.106 9.697 0.058 0.227 0.168 0.527 0.245 0.668 0.485 0.867 1.397 1.444 2.445 1.444 0.534 0 1.033-0.15 1.458-0.41l-0.012 0.007c0.577-0.346 0.945-0.803 1.195-1.486l0.138-0.378 0.014-12.84c0.015-14.125 0.035-13.244-0.307-13.942-0.344-0.663-0.922-1.164-1.622-1.399l-0.020-0.006c-0.338-0.104-0.52-0.106-13.39-0.102-10.371 0.003-13.092 0.017-13.262 0.071z"></path>
</symbol>
<symbol id="icon-arrow-right" viewBox="0 0 29 32">
<path d="M2.667 14c-1.105 0-2 0.895-2 2s0.895 2 2 2v-4zM28.594 17.414c0.781-0.781 0.781-2.047 0-2.829l-12.728-12.728c-0.781-0.781-2.047-0.781-2.828 0s-0.781 2.047 0 2.828l11.314 11.314-11.314 11.314c-0.781 0.781-0.781 2.047 0 2.828s2.047 0.781 2.828 0l12.728-12.728zM2.667 18h24.513v-4h-24.513v4z"></path>
</symbol>
<symbol id="icon-sound" viewBox="0 0 38 32">
<path d="M0.713 10.586v10.825c0.002 0.87 0.706 1.575 1.576 1.576h5.204v-1.341c-0.002-0.813 0.002-12.146 0-12.636h-5.204c-0.87 0.002-1.574 0.706-1.576 1.576z"></path>
<path d="M23.481 0.083c-0.211-0.116-0.47-0.111-0.677 0.013l-13.97 8.397v15.009l13.97 8.397c0.104 0.065 0.225 0.101 0.349 0.101 0.369-0.005 0.666-0.302 0.671-0.671v-30.663c-0.002-0.241-0.132-0.463-0.342-0.584v0.001z"></path>
<path d="M37.599 12.317c-0.178 0-0.349 0.070-0.474 0.196s-0.196 0.297-0.196 0.475v6.022c0 0.37 0.3 0.671 0.671 0.671s0.671-0.3 0.671-0.671v-6.023c0-0.178-0.070-0.349-0.196-0.475s-0.297-0.196-0.474-0.196z"></path>
<path d="M34.087 10.435c-0.178 0-0.349 0.070-0.474 0.196s-0.196 0.297-0.196 0.475v9.785c0 0.371 0.3 0.671 0.671 0.671s0.671-0.3 0.671-0.671v-9.785c0-0.178-0.070-0.349-0.196-0.475s-0.297-0.196-0.474-0.196z"></path>
<path d="M30.572 8.929c-0.178 0-0.347 0.070-0.473 0.196-0.127 0.126-0.198 0.297-0.198 0.475v12.796c0 0.371 0.3 0.671 0.671 0.671s0.671-0.3 0.671-0.671v-12.796c0-0.178-0.070-0.349-0.196-0.475s-0.297-0.196-0.474-0.196z"></path>
<path d="M27.060 12.317c-0.178 0-0.347 0.070-0.473 0.196s-0.198 0.297-0.198 0.475v6.022c0 0.37 0.302 0.671 0.671 0.671 0.371 0 0.671-0.3 0.671-0.671v-6.023c0-0.178-0.070-0.349-0.196-0.475s-0.295-0.196-0.474-0.196z"></path>
</symbol>
<symbol id="icon-sound-off" viewBox="0 0 38 32">
<path d="M0.504 10.594v10.825c0.002 0.87 0.706 1.574 1.576 1.576h5.204v-1.341c-0.002-0.813 0.002-12.146 0-12.636h-5.204c-0.87 0.002-1.574 0.706-1.576 1.576z"></path>
<path d="M23.273 0.091c-0.211-0.116-0.47-0.111-0.677 0.013l-13.97 8.397v15.010l13.97 8.397c0.104 0.065 0.225 0.101 0.349 0.101 0.369-0.005 0.666-0.302 0.671-0.671v-30.663c-0.002-0.241-0.132-0.463-0.342-0.584v0.001z"></path>
<path d="M36.276 11.007c-0.126-0.126-0.295-0.196-0.473-0.196-0.179-0.001-0.35 0.070-0.475 0.196l-9.048 9.048c-0.262 0.262-0.262 0.686 0 0.948s0.686 0.262 0.948 0l9.048-9.048c0.126-0.126 0.197-0.296 0.197-0.474s-0.071-0.349-0.197-0.474z"></path>
<path d="M26.28 11.007c-0.126 0.126-0.196 0.295-0.196 0.473-0.001 0.179 0.070 0.35 0.196 0.475l9.048 9.048c0.262 0.262 0.686 0.262 0.948 0s0.262-0.686 0-0.948l-9.048-9.048c-0.126-0.126-0.296-0.197-0.474-0.197s-0.349 0.071-0.474 0.197z"></path>
</symbol>
<symbol id="icon-globe" viewBox="0 0 32 32">
<path d="M31.49 14.884c-0.393-6.506-4.627-11.954-10.432-14.058-0.118-0.044-0.221 0.101-0.14 0.199 2.451 2.97 4.084 8.003 4.244 13.874 0 0.069 0.057 0.123 0.125 0.123h6.073c0.074 0 0.133-0.061 0.128-0.135l0.002-0.002z"></path>
<path d="M10.181 0.922c-5.672 2.168-9.788 7.553-10.176 13.962-0.005 0.074 0.054 0.135 0.128 0.135h5.898c0.069 0 0.123-0.054 0.125-0.123 0.157-5.81 1.76-10.796 4.17-13.778 0.081-0.098-0.025-0.243-0.143-0.197h-0.002z"></path>
<path d="M14.729 0.001c-3.653 0.937-6.621 7.292-6.852 14.887 0 0.071 0.057 0.133 0.128 0.133h6.756c0.069 0 0.125-0.057 0.125-0.125v-14.766c0-0.081-0.076-0.145-0.157-0.125v-0.002z"></path>
<path d="M14.884 31.57v-14.705c0-0.069-0.057-0.125-0.125-0.125h-6.754c-0.071 0-0.13 0.059-0.128 0.133 0.246 7.565 3.206 13.891 6.85 14.825 0.079 0.020 0.157-0.042 0.157-0.125v-0.002z"></path>
<path d="M0 16.875c0.391 6.437 4.539 11.838 10.247 13.989 0.12 0.044 0.224-0.098 0.143-0.197-2.439-2.963-4.069-7.963-4.239-13.805 0-0.069-0.057-0.123-0.125-0.123h-5.898c-0.074 0-0.133 0.061-0.128 0.135z"></path>
<path d="M16.764 31.64c3.56-1.094 6.427-7.329 6.67-14.769 0-0.071-0.057-0.133-0.128-0.133h-6.577c-0.069 0-0.125 0.057-0.125 0.125v14.651c0 0.084 0.081 0.148 0.162 0.123l-0.003 0.003z"></path>
<path d="M16.602 0.18v14.712c0 0.069 0.057 0.125 0.125 0.125h6.579c0.071 0 0.13-0.059 0.128-0.133-0.229-7.467-3.1-13.734-6.673-14.83-0.081-0.025-0.162 0.039-0.162 0.123l0.003 0.002z"></path>
<path d="M20.971 30.963c5.847-2.082 10.117-7.553 10.513-14.090 0.005-0.074-0.054-0.135-0.128-0.135h-6.075c-0.069 0-0.123 0.054-0.125 0.123-0.172 5.908-1.837 10.956-4.322 13.903-0.081 0.098 0.017 0.243 0.138 0.199z"></path>
</symbol>
<symbol id="icon-facebook" viewBox="0 0 32 32">
<path d="M15.872 0c-8.766 0-15.872 7.106-15.872 15.872s7.106 15.872 15.872 15.872c8.766 0 15.872-7.106 15.872-15.872s-7.106-15.872-15.872-15.872zM17.527 16.57v8.635h-3.573v-8.635h-1.785v-2.976h1.785v-1.787c0-2.428 1.008-3.871 3.872-3.871h2.384v2.976h-1.49c-1.115 0-1.188 0.416-1.188 1.192l-0.004 1.489h2.7l-0.316 2.976h-2.384z"></path>
</symbol>
<symbol id="icon-instagram" viewBox="0 0 33 32">
<path d="M16.176 0c-8.766 0-15.872 7.106-15.872 15.872s7.106 15.872 15.872 15.872c8.766 0 15.872-7.106 15.872-15.872s-7.106-15.872-15.872-15.872zM12.686 7.458c0.903-0.041 1.192-0.051 3.491-0.051h-0.003c2.3 0 2.587 0.010 3.49 0.051 0.901 0.041 1.517 0.184 2.056 0.393 0.557 0.216 1.028 0.505 1.499 0.976s0.76 0.943 0.977 1.5c0.208 0.538 0.351 1.153 0.393 2.055 0.041 0.903 0.051 1.191 0.051 3.49s-0.011 2.587-0.051 3.49c-0.042 0.901-0.185 1.516-0.393 2.055-0.217 0.557-0.506 1.029-0.977 1.499s-0.942 0.761-1.498 0.977c-0.539 0.209-1.154 0.352-2.056 0.393-0.903 0.041-1.191 0.051-3.49 0.051s-2.587-0.010-3.49-0.051c-0.901-0.041-1.516-0.184-2.055-0.393-0.556-0.216-1.029-0.506-1.499-0.977s-0.76-0.943-0.976-1.5c-0.209-0.538-0.352-1.153-0.393-2.055-0.041-0.903-0.051-1.191-0.051-3.49s0.011-2.588 0.051-3.491c0.041-0.901 0.183-1.516 0.393-2.055 0.217-0.557 0.506-1.029 0.977-1.499s0.943-0.76 1.5-0.976c0.538-0.209 1.153-0.352 2.055-0.393z"></path>
<path d="M15.418 8.932c0.147-0 0.306-0 0.477-0l0.282 0c2.26 0 2.528 0.008 3.421 0.049 0.825 0.038 1.273 0.176 1.572 0.292 0.395 0.153 0.677 0.337 0.973 0.633s0.48 0.578 0.634 0.973c0.116 0.298 0.254 0.746 0.292 1.571 0.041 0.892 0.049 1.16 0.049 3.42s-0.009 2.527-0.049 3.42c-0.038 0.825-0.176 1.273-0.292 1.571-0.154 0.395-0.337 0.676-0.634 0.972s-0.578 0.48-0.973 0.633c-0.298 0.116-0.746 0.254-1.572 0.292-0.892 0.041-1.16 0.049-3.421 0.049s-2.528-0.009-3.421-0.049c-0.825-0.038-1.273-0.176-1.572-0.292-0.395-0.153-0.677-0.337-0.973-0.633s-0.48-0.578-0.633-0.973c-0.116-0.298-0.254-0.746-0.292-1.571-0.041-0.892-0.049-1.16-0.049-3.421s0.008-2.527 0.049-3.42c0.038-0.825 0.176-1.273 0.292-1.572 0.153-0.395 0.337-0.677 0.633-0.974s0.579-0.48 0.973-0.633c0.298-0.116 0.747-0.254 1.572-0.292 0.781-0.035 1.084-0.046 2.661-0.048v0.002zM20.695 10.338c-0.561 0-1.016 0.454-1.016 1.015s0.455 1.016 1.016 1.016c0.561 0 1.016-0.455 1.016-1.016s-0.455-1.016-1.016-1.016v0zM11.829 15.872c0-2.401 1.946-4.347 4.347-4.347s4.347 1.946 4.347 4.347-1.946 4.346-4.346 4.346c-2.401 0-4.347-1.946-4.347-4.346z"></path>
<path d="M16.178 13.050c1.558 0 2.822 1.263 2.822 2.822s-1.263 2.822-2.822 2.822c-1.558 0-2.822-1.263-2.822-2.822s1.263-2.822 2.822-2.822z"></path>
</symbol>
<symbol id="icon-linkedin" viewBox="0 0 33 32">
<path fill-rule="evenodd" clip-rule="evenodd" d="M16.684 0c-8.766 0-15.872 7.106-15.872 15.872s7.106 15.872 15.872 15.872c8.766 0 15.872-7.106 15.872-15.872s-7.106-15.872-15.872-15.872zM8.431 13.146h3.597v10.807h-3.597v-10.807zM12.265 9.803c-0.023-1.060-0.781-1.867-2.012-1.867s-2.035 0.807-2.035 1.867c0 1.038 0.781 1.868 1.988 1.868h0.023c1.254 0 2.035-0.83 2.035-1.868zM20.86 12.892c2.367 0 4.141 1.545 4.141 4.865l-0 6.197h-3.597v-5.782c0-1.452-0.521-2.443-1.823-2.443-0.994 0-1.586 0.668-1.846 1.313-0.095 0.231-0.118 0.553-0.118 0.876v6.036h-3.597c0 0 0.047-9.793 0-10.807h3.597v1.531c0.477-0.736 1.332-1.785 3.242-1.785z"></path>
</symbol>
<symbol id="icon-twitter" viewBox="0 0 32 32">
<path d="M15.922 0c-8.766 0-15.872 7.106-15.872 15.872s7.106 15.872 15.872 15.872c8.766 0 15.872-7.106 15.872-15.872s-7.106-15.872-15.872-15.872zM15.479 13.45l-0.033-0.549c-0.1-1.423 0.777-2.724 2.165-3.228 0.511-0.179 1.377-0.202 1.943-0.045 0.222 0.067 0.644 0.291 0.944 0.493l0.544 0.37 0.6-0.191c0.333-0.101 0.777-0.269 0.977-0.381 0.189-0.101 0.355-0.157 0.355-0.123 0 0.191-0.411 0.841-0.755 1.199-0.466 0.504-0.333 0.549 0.611 0.213 0.566-0.191 0.577-0.191 0.466 0.022-0.067 0.112-0.411 0.504-0.777 0.863-0.622 0.617-0.655 0.684-0.655 1.199 0 0.796-0.377 2.455-0.755 3.362-0.699 1.704-2.198 3.463-3.697 4.349-2.109 1.244-4.918 1.558-7.283 0.829-0.788-0.247-2.143-0.874-2.143-0.986 0-0.034 0.411-0.078 0.91-0.090 1.044-0.022 2.087-0.314 2.975-0.829l0.6-0.359-0.688-0.235c-0.977-0.336-1.854-1.11-2.076-1.838-0.067-0.235-0.044-0.247 0.577-0.247l0.644-0.011-0.544-0.258c-0.644-0.325-1.232-0.874-1.521-1.435-0.211-0.404-0.477-1.423-0.4-1.502 0.022-0.034 0.255 0.034 0.522 0.123 0.766 0.28 0.866 0.213 0.422-0.258-0.833-0.852-1.088-2.118-0.688-3.318l0.189-0.538 0.733 0.729c1.499 1.468 3.264 2.342 5.285 2.6l0.555 0.067z"></path>
</symbol>
<symbol id="icon-youtube" viewBox="0 0 33 32">
<path d="M16.43 0c-8.766 0-15.872 7.106-15.872 15.872s7.106 15.872 15.872 15.872c8.766 0 15.872-7.106 15.872-15.872s-7.106-15.872-15.872-15.872zM23.044 10.415c0.728 0.2 1.302 0.789 1.497 1.537 0.354 1.356 0.354 4.184 0.354 4.184s0 2.828-0.354 4.184c-0.195 0.748-0.768 1.337-1.497 1.537-1.32 0.363-6.614 0.363-6.614 0.363s-5.294 0-6.614-0.363c-0.728-0.2-1.302-0.789-1.497-1.537-0.354-1.356-0.354-4.184-0.354-4.184s0-2.828 0.354-4.184c0.195-0.748 0.768-1.337 1.497-1.537 1.32-0.363 6.614-0.363 6.614-0.363s5.294 0 6.614 0.363z"></path>
<path d="M14.844 19.047v-5.291l4.233 2.645-4.233 2.645z"></path>
</symbol>
</defs>
</svg>
