<svg width="28" height="28" fill="none" xmlns="http://www.w3.org/2000/svg"><path d="M13.09.029c-4.028.322-7.455 2.1-9.972 5.174C.376 8.554-.633 13.116.425 17.383c1.142 4.606 4.611 8.372 9.095 9.873 1.504.504 2.844.719 4.48.719 2.855 0 5.382-.761 7.755-2.335 4.916-3.262 7.246-9.275 5.82-15.023a13.975 13.975 0 0 0-5.82-8.257C19.886 1.12 18.014.423 15.727.115c-.521-.07-2.165-.124-2.637-.086m5.623 10.027c.185.096.28.247.28.444a.476.476 0 0 1-.28.444c-.204.105-9.222.105-9.426 0-.182-.095-.28-.246-.28-.434 0-.205.066-.322.248-.432.144-.088.276-.091 4.736-.091 3.978 0 4.605.009 4.722.069m.122 4.103c.117.117.158.199.158.315 0 .235-.15.445-.359.503-.242.067-9.021.068-9.264.001a.471.471 0 0 1-.363-.476c0-.148.031-.216.158-.343L9.324 14h9.352l.159.159m-.045 3.937c.255.207.274.51.045.739l-.159.158H9.324l-.159-.158c-.229-.229-.21-.532.045-.739.093-.075.416-.081 4.79-.081s4.697.006 4.79.081" fill="#000" fill-rule="evenodd"/></svg>